<?xml version="1.0" encoding="UTF-8"?>
<svg version="1.1" xmlns="http://www.w3.org/2000/svg" width="484" height="515">
<path d="M0 0 C3.04126524 1.26213508 6.10002746 2.47888556 9.15844727 3.69873047 C10.8105562 4.35825302 12.46173802 5.020102 14.11206055 5.68408203 C26.58970409 10.69952496 39.16780559 15.45940665 51.72802734 20.26318359 C55.18623324 21.58620205 58.6436594 22.91124403 62.10107422 24.23632812 C63.1395752 24.63255371 64.17807617 25.0287793 65.24804688 25.43701172 C74.66431848 29.04675937 83.94843178 32.94869413 93.22412109 36.90283203 C99.33962423 39.50576626 105.45089683 42.05191945 111.70117188 44.31542969 C125.6894517 49.38183825 137.39405335 55.39422635 144.72607422 69.11132812 C149.49755967 80.17759016 149.3575566 92.3349859 149.54248047 104.18554688 C149.56326157 105.33384476 149.58404266 106.48214264 149.60545349 107.66523743 C149.6484614 110.08807117 149.68953236 112.51093999 149.72875977 114.93383789 C149.78767837 118.55624969 149.85301729 122.17850001 149.91943359 125.80078125 C150.39134187 152.44581686 150.21470038 179.07955755 149.93853474 205.72565746 C149.88820593 210.59132731 149.84172353 215.45696692 149.80419922 220.32275391 C149.76726668 225.1032331 149.72096041 229.88353638 149.66801071 234.66386414 C149.64960335 236.46584546 149.6344461 238.26786326 149.62273026 240.06990051 C149.60577804 242.57803513 149.57674605 245.0857659 149.54492188 247.59375 C149.54168159 248.68626823 149.54168159 248.68626823 149.53837585 249.80085754 C149.41991946 257.13858174 147.7954366 263.43407834 144.22607422 269.92382812 C143.56607422 269.92382812 142.90607422 269.92382812 142.22607422 269.92382812 C142.22607422 270.58382813 142.22607422 271.24382812 142.22607422 271.92382812 C136.73530059 275.2595171 130.40593826 274.55735689 124.22607422 273.92382812 C119.49930724 272.61494908 115.1282108 270.75253212 110.66357422 268.73632812 C108.41281023 267.76242736 106.16150896 266.78976733 103.90966797 265.81835938 C102.23046265 265.0829895 102.23046265 265.0829895 100.51733398 264.33276367 C96.39947329 262.56997352 92.22904706 260.97868721 88.04125977 259.39086914 C83.22972932 257.55453489 78.45432955 255.62792626 73.67529297 253.70898438 C72.72514816 253.32778946 71.77500336 252.94659454 70.79606628 252.55384827 C66.8451428 250.96811215 62.89476856 249.38101696 58.94506836 247.79223633 C44.70810402 242.06753754 30.45424069 236.45201481 15.97607422 231.36132812 C10.72230616 229.49345348 5.55612074 227.49637823 0.43310547 225.29492188 C-1.95608833 224.27347605 -4.34826342 223.2930268 -6.76220703 222.33398438 C-14.80311031 219.07281598 -22.08560676 215.79721361 -27.77392578 208.92382812 C-27.77392578 208.26382813 -27.77392578 207.60382813 -27.77392578 206.92382812 C-28.43392578 206.92382812 -29.09392578 206.92382812 -29.77392578 206.92382812 C-30.55523121 205.61753486 -31.32325755 204.30329985 -32.08642578 202.98632812 C-32.7303125 201.88998047 -32.7303125 201.88998047 -33.38720703 200.77148438 C-38.12943829 191.0332123 -38.20917556 182.1938996 -38.17797852 171.61328125 C-38.18368763 169.8630276 -38.19065398 168.11277768 -38.19877625 166.36253357 C-38.2166612 161.62908804 -38.21554828 156.89582836 -38.20983386 152.16235924 C-38.2067358 148.20361459 -38.2128412 144.24490532 -38.21887261 140.28616571 C-38.23290039 130.944816 -38.23137059 121.60355778 -38.2199707 112.26220703 C-38.20848604 102.63897448 -38.22257501 93.01602051 -38.24936718 83.39282465 C-38.27154524 75.11569337 -38.27815696 66.83864941 -38.27229077 58.56149054 C-38.26892566 53.62438627 -38.27130683 48.68746063 -38.28854179 43.75038147 C-38.30404287 39.10778335 -38.30002038 34.46559724 -38.28123665 29.82301521 C-38.27755978 28.12392822 -38.28063283 26.42481047 -38.29112244 24.72575188 C-38.39397561 6.68225027 -38.39397561 6.68225027 -33.77392578 0.92382812 C-31.63526058 -0.29761505 -31.63526058 -0.29761505 -29.77392578 -1.07617188 C-29.77392578 -1.73617187 -29.77392578 -2.39617187 -29.77392578 -3.07617188 C-19.19366003 -7.73675075 -10.06715562 -4.1831663 0 0 Z " fill="#DA70E1" transform="translate(92.77392578125,162.076171875)"/>
<path d="M0 0 C0.88864746 0.32178223 1.77729492 0.64356445 2.69287109 0.97509766 C14.57168393 5.28094085 26.33441219 9.85308236 37.99072266 14.72949219 C43.13562878 16.8726117 48.31915463 18.8859961 53.54296875 20.828125 C61.59432287 23.82300576 69.5822945 26.96510207 77.55639648 30.15942383 C79.82735752 31.06844719 82.10013947 31.97280913 84.37304688 32.87695312 C91.57223688 35.75097052 98.68796031 38.71558081 105.72192383 41.97875977 C108.73328796 43.32872613 111.80590193 44.40122573 114.9375 45.4375 C134.31964026 52.25319767 134.31964026 52.25319767 139 60 C140.16662195 63.57277973 140.3582611 65.16405743 138.875 68.625 C135.03890853 73.4840492 130.72099766 75.74970323 125 77.9375 C124.33991943 78.19273437 123.67983887 78.44796875 122.99975586 78.7109375 C121.64700027 79.23288855 120.29274949 79.75098141 118.93701172 80.26513672 C117.18514475 80.92975981 115.43797665 81.60673634 113.69140625 82.28515625 C109.15780369 84.04539395 104.61348814 85.77491406 100.0546875 87.46875 C99.37075928 87.72333984 98.68683105 87.97792969 97.98217773 88.24023438 C96.06063186 88.95424641 94.13778113 89.66474401 92.21484375 90.375 C87.84284169 92.03008436 83.53864387 93.84116995 79.2277832 95.6484375 C51.33478851 107.32800929 51.33478851 107.32800929 37.90625 111.96484375 C33.9091519 113.38854133 30.01896746 115.03210982 26.11328125 116.6875 C21.3978511 118.67543542 16.65523127 120.58545224 11.88671875 122.44140625 C9.32016884 123.44687861 6.82363177 124.53664506 4.33203125 125.71484375 C-9.85591023 132.1463389 -26.64696585 132.6638724 -41.3125 127.3125 C-44.72620667 125.98516716 -48.03173495 124.45178996 -51.34985352 122.90356445 C-59.54295991 119.11228969 -67.90051363 115.82826266 -76.3125 112.5625 C-85.60181273 108.95228944 -94.82377423 105.2553218 -103.96948242 101.29272461 C-107.6114684 99.73916658 -111.2772482 98.34789289 -115 97 C-121.24470952 94.70825223 -127.33945718 92.16096414 -133.4375 89.5 C-137.25705187 87.89176763 -141.11139489 86.43033972 -145 85 C-151.29678453 82.68323712 -157.45691441 80.13720808 -163.6015625 77.4375 C-167.051523 75.97820636 -170.53808589 74.70470507 -174.0625 73.4375 C-178.69223518 71.65553128 -182.20317468 70.29512459 -185 66 C-185.99913186 63.2322899 -186.3796578 60.92796697 -186 58 C-181.70935047 51.02769451 -174.87470375 48.13773194 -167.375 45.4375 C-165.96318144 44.92155757 -164.55175671 44.4045368 -163.140625 43.88671875 C-162.34076172 43.59458496 -161.54089844 43.30245117 -160.71679688 43.00146484 C-155.17132425 40.9572944 -149.65015062 38.8483287 -144.125 36.75 C-142.86647471 36.27297881 -141.60792966 35.79600973 -140.34936523 35.3190918 C-134.2422229 33.00311016 -128.14089828 30.67299698 -122.05078125 28.3125 C-111.66762918 24.28819318 -101.28589252 20.34814497 -90.74682617 16.75073242 C-83.49184513 14.2419871 -76.37924529 11.40588638 -69.25 8.5625 C-24.55774147 -9.09714727 -24.55774147 -9.09714727 0 0 Z " fill="#D66FE4" transform="translate(264,76)"/>
<path d="M0 0 C8.38099596 6.9841633 9.77794179 17.09919184 10.80496216 27.46594238 C11.55877141 37.25991912 11.49808037 47.12039904 11.625 56.9375 C11.66330418 59.31576754 11.70236242 61.69402306 11.7421875 64.07226562 C12.1675868 90.6511317 11.98792584 117.22250886 11.71246147 143.80183315 C11.662131 148.66750172 11.61564931 153.53314007 11.578125 158.39892578 C11.54119246 163.17940498 11.49488619 167.95970825 11.44193649 172.74003601 C11.42352914 174.54201733 11.40837188 176.34403514 11.39665604 178.14607239 C11.37970382 180.65420701 11.35067183 183.16193778 11.31884766 185.66992188 C11.31560738 186.76244011 11.31560738 186.76244011 11.31230164 187.87702942 C11.19384525 195.21475362 9.56936238 201.51025021 6 208 C5.34 208 4.68 208 4 208 C4 208.66 4 209.32 4 210 C-1.49077363 213.33568897 -7.82013596 212.63352877 -14 212 C-18.72676698 210.69112095 -23.09786342 208.828704 -27.5625 206.8125 C-29.81326399 205.83859923 -32.06456526 204.8659392 -34.31640625 203.89453125 C-35.43587646 203.40428467 -36.55534668 202.91403809 -37.70874023 202.40893555 C-41.82660093 200.64614539 -45.99702716 199.05485908 -50.18481445 197.46704102 C-54.9963449 195.63070676 -59.77174467 193.70409813 -64.55078125 191.78515625 C-65.50092606 191.40396133 -66.45107086 191.02276642 -67.43000793 190.63002014 C-71.38093142 189.04428403 -75.33130565 187.45718884 -79.28100586 185.8684082 C-93.51795224 180.14371664 -107.77174883 174.52790803 -122.25 169.4375 C-128.60295504 167.18090737 -134.80699868 164.66081212 -141 162 C-142.28637236 161.4503196 -143.57283496 160.90085033 -144.859375 160.3515625 C-148.24168308 158.90591215 -151.62143602 157.45438183 -155 156 C-151.14551048 154.87678398 -149.68211355 155.28168034 -146 157 C-139.31865913 160.0827279 -133.01627069 162.72542634 -125.625 163.5 C-124.42875 163.665 -123.2325 163.83 -122 164 C-121.67 164.66 -121.34 165.32 -121 166 C-119.865625 166.144375 -118.73125 166.28875 -117.5625 166.4375 C-116.386875 166.623125 -115.21125 166.80875 -114 167 C-113.34 167.99 -112.68 168.98 -112 170 C-105.96770108 173.42236487 -99.71174458 175.44191644 -93 177 C-92.01 177.66 -91.02 178.32 -90 179 C-88.34450469 179.38499891 -86.6777567 179.72793135 -85 180 C-85 180.66 -85 181.32 -85 182 C-84.32453125 182.04898438 -83.6490625 182.09796875 -82.953125 182.1484375 C-82.06109375 182.22320312 -81.1690625 182.29796875 -80.25 182.375 C-79.36828125 182.44460938 -78.4865625 182.51421875 -77.578125 182.5859375 C-74.97516902 183.00398801 -73.32666148 183.81820369 -71 185 C-68.64435404 185.44811137 -68.64435404 185.44811137 -66.25 185.625 C-65.05117187 185.73714844 -65.05117187 185.73714844 -63.828125 185.8515625 C-62.92320312 185.92503906 -62.92320312 185.92503906 -62 186 C-61.67 186.99 -61.34 187.98 -61 189 C-59.329375 189.1546875 -59.329375 189.1546875 -57.625 189.3125 C-55.830625 189.6528125 -55.830625 189.6528125 -54 190 C-53.34 190.99 -52.68 191.98 -52 193 C-50.34183216 193.68753301 -48.67540664 194.35561283 -47 195 C-46.67 195.66 -46.34 196.32 -46 197 C-38.94795526 200.11262665 -31.61897332 201.57310854 -24.0078125 202.5078125 C-20.78168218 203.03572473 -18.00107826 203.69183768 -15 205 C-14.34 206.32 -13.68 207.64 -13 209 C-8.38 209 -3.76 209 1 209 C1.66 207.68 2.32 206.36 3 205 C3.515625 204.401875 4.03125 203.80375 4.5625 203.1875 C8.55380455 197.11377569 7.14071843 187.73048728 7.12939453 180.78564453 C7.1307516 179.44900973 7.13253325 178.1123753 7.13470459 176.77574158 C7.13925403 173.15214572 7.13749655 169.52857843 7.1343255 165.90498209 C7.13177544 162.07539708 7.13414802 158.24581436 7.13571167 154.41622925 C7.13753139 147.95847136 7.13513818 141.5007249 7.13037109 135.04296875 C7.12498881 127.66864239 7.12664728 120.29434394 7.1321975 112.92001832 C7.136807 106.53130141 7.13734 100.1425927 7.13475883 93.75387466 C7.13323049 89.96516523 7.13290259 86.17646866 7.13629532 82.38776016 C7.14309397 73.2987951 7.11475547 64.21090806 7.02161884 55.12238026 C7.00692754 53.68009547 6.9932534 52.23780005 6.98048687 50.79549694 C6.93963921 46.32844173 6.87585048 41.86263294 6.78251624 37.39635634 C6.75591609 36.00491044 6.73534393 34.61333219 6.72169328 33.221699 C6.66838971 17.53374563 6.66838971 17.53374563 0 4 C0 2.68 0 1.36 0 0 Z " fill="#AF5BA6" transform="translate(231,224)"/>
<path d="M0 0 C3.04150291 1.26223372 6.10049955 2.47908768 9.15917969 3.69897461 C10.80889156 4.35757284 12.45763313 5.01860603 14.10546875 5.68188477 C22.14485874 8.9144431 30.23153953 12.0195606 38.32275391 15.11962891 C49.31223619 19.33242688 60.27209435 23.61969174 71.22607422 27.92382812 C71.22607422 28.25382812 71.22607422 28.58382812 71.22607422 28.92382812 C66.87209105 28.41159481 63.24809134 27.6331854 59.22607422 25.92382812 C58.00919922 25.59382813 56.79232422 25.26382813 55.53857422 24.92382812 C52.22607422 23.92382812 52.22607422 23.92382812 50.22607422 21.92382812 C43.81041104 18.97685317 37.20237584 18.30198279 30.22607422 17.92382812 C30.22607422 16.60382813 30.22607422 15.28382813 30.22607422 13.92382812 C29.06978516 13.97603516 29.06978516 13.97603516 27.89013672 14.02929688 C26.88724609 14.05636719 25.88435547 14.0834375 24.85107422 14.11132812 C23.35447266 14.16353516 23.35447266 14.16353516 21.82763672 14.21679688 C20.96912109 14.12011719 20.11060547 14.0234375 19.22607422 13.92382812 C18.56607422 12.93382812 17.90607422 11.94382813 17.22607422 10.92382812 C14.91578337 10.18123464 12.58032222 9.51239013 10.22607422 8.92382812 C9.56607422 8.59382812 8.90607422 8.26382813 8.22607422 7.92382812 C8.22607422 7.26382813 8.22607422 6.60382813 8.22607422 5.92382812 C5.25607422 5.92382812 2.28607422 5.92382812 -0.77392578 5.92382812 C-1.43392578 4.60382813 -2.09392578 3.28382813 -2.77392578 1.92382812 C-5.19775655 0.75429397 -5.19775655 0.75429397 -7.77392578 -0.07617188 C-8.76392578 -0.73617187 -9.75392578 -1.39617187 -10.77392578 -2.07617188 C-13.42351276 -2.45843608 -15.86560282 -2.67392922 -18.52392578 -2.76367188 C-19.56033203 -2.86325195 -19.56033203 -2.86325195 -20.61767578 -2.96484375 C-23.88550781 -3.06005314 -26.02578426 -2.63914381 -28.67226505 -0.64768314 C-35.48331548 6.93645895 -34.75321469 15.34275929 -34.66040039 24.92797852 C-34.6682968 26.75195834 -34.67926306 28.57592705 -34.6930542 30.39987183 C-34.72169879 35.33131761 -34.70758599 40.26181056 -34.68561244 45.19325566 C-34.66994789 50.3542878 -34.69385954 55.51513551 -34.71351624 60.6761322 C-34.74472029 70.44012462 -34.7404951 80.20376518 -34.72344166 89.96777958 C-34.70575274 101.08755837 -34.72771155 112.20714929 -34.75294864 123.3269006 C-34.8039585 146.192606 -34.8053479 169.05809789 -34.77392578 191.92382812 C-33.78392578 191.92382812 -32.79392578 191.92382812 -31.77392578 191.92382812 C-30.29560318 194.88047332 -30.71359795 197.66612549 -30.77392578 200.92382812 C-29.78392578 201.25382813 -28.79392578 201.58382812 -27.77392578 201.92382812 C-27.77392578 202.91382813 -27.77392578 203.90382813 -27.77392578 204.92382812 C-27.17580078 204.96507812 -26.57767578 205.00632812 -25.96142578 205.04882812 C-22.6869434 206.35862108 -22.26157444 208.82456009 -20.77392578 211.92382812 C-19.47247777 212.96498654 -18.14594709 213.97760653 -16.77392578 214.92382812 C-16.77392578 215.58382812 -16.77392578 216.24382812 -16.77392578 216.92382812 C-21.53953199 215.52217924 -24.73275021 212.76971339 -27.77392578 208.92382812 C-27.77392578 208.26382813 -27.77392578 207.60382813 -27.77392578 206.92382812 C-28.43392578 206.92382812 -29.09392578 206.92382812 -29.77392578 206.92382812 C-30.55523121 205.61753486 -31.32325755 204.30329985 -32.08642578 202.98632812 C-32.7303125 201.88998047 -32.7303125 201.88998047 -33.38720703 200.77148438 C-38.12943829 191.0332123 -38.20917556 182.1938996 -38.17797852 171.61328125 C-38.18368763 169.8630276 -38.19065398 168.11277768 -38.19877625 166.36253357 C-38.2166612 161.62908804 -38.21554828 156.89582836 -38.20983386 152.16235924 C-38.2067358 148.20361459 -38.2128412 144.24490532 -38.21887261 140.28616571 C-38.23290039 130.944816 -38.23137059 121.60355778 -38.2199707 112.26220703 C-38.20848604 102.63897448 -38.22257501 93.01602051 -38.24936718 83.39282465 C-38.27154524 75.11569337 -38.27815696 66.83864941 -38.27229077 58.56149054 C-38.26892566 53.62438627 -38.27130683 48.68746063 -38.28854179 43.75038147 C-38.30404287 39.10778335 -38.30002038 34.46559724 -38.28123665 29.82301521 C-38.27755978 28.12392822 -38.28063283 26.42481047 -38.29112244 24.72575188 C-38.39397561 6.68225027 -38.39397561 6.68225027 -33.77392578 0.92382812 C-31.63526058 -0.29761505 -31.63526058 -0.29761505 -29.77392578 -1.07617188 C-29.77392578 -1.73617187 -29.77392578 -2.39617187 -29.77392578 -3.07617188 C-19.19366003 -7.73675075 -10.06715562 -4.1831663 0 0 Z " fill="#6F4287" transform="translate(92.77392578125,162.076171875)"/>
<path d="M0 0 C0.33 0 0.66 0 1 0 C1 60.06 1 120.12 1 182 C1.99 182 2.98 182 4 182 C5.4783226 184.95664519 5.06032783 187.74229737 5 191 C5.99 191.33 6.98 191.66 8 192 C8 192.99 8 193.98 8 195 C8.598125 195.04125 9.19625 195.0825 9.8125 195.125 C13.08698238 196.43479295 13.51235134 198.90073196 15 202 C16.30144802 203.04115841 17.62797869 204.05377841 19 205 C19 205.66 19 206.32 19 207 C14.23439379 205.59835111 11.04117557 202.84588526 8 199 C8 198.34 8 197.68 8 197 C7.34 197 6.68 197 6 197 C5.18985274 195.71984364 4.40312315 194.42487047 3.625 193.125 C2.96371094 192.04605469 2.96371094 192.04605469 2.2890625 190.9453125 C-1.89283914 181.39030088 -1.27983592 170.95608382 -1.24291992 160.74023438 C-1.2439944 159.00803557 -1.24593555 157.27583712 -1.24867249 155.54364014 C-1.25349456 150.86652527 -1.24590034 146.18950671 -1.23571944 141.51240349 C-1.22690471 136.61264031 -1.22869699 131.71287984 -1.2290802 126.81311035 C-1.2281457 118.59544267 -1.21948694 110.37781208 -1.20581055 102.16015625 C-1.19004546 92.65217075 -1.184814 83.14422571 -1.1855461 73.63622808 C-1.18615556 64.48561383 -1.1810603 55.33501276 -1.17275429 46.18440247 C-1.16921926 42.28969724 -1.16739075 38.39499667 -1.16686058 34.50028992 C-1.16585888 29.92348999 -1.15977655 25.34672426 -1.14969444 20.76993561 C-1.14676533 19.08725951 -1.1455449 17.40457949 -1.14612198 15.72190094 C-1.14661011 13.43285 -1.14098253 11.14389589 -1.13371277 8.8548584 C-1.13203692 7.57180565 -1.13036108 6.2887529 -1.12863445 4.96681976 C-1 2 -1 2 0 0 Z " fill="#A45CBC" transform="translate(57,172)"/>
<path d="M0 0 C6.75237162 6.20488203 8.48527834 11.74647844 9.1730957 20.58569336 C9.25287564 21.54276404 9.33265558 22.49983473 9.4148531 23.48590755 C10.36928054 36.18501825 10.26804721 48.90222613 10.23046875 61.62890625 C10.22824943 64.35619645 10.22877463 67.08348483 10.2290802 69.81077576 C10.22815134 75.50302471 10.21958649 81.19521953 10.20581055 86.88745117 C10.19192538 92.64397248 10.18479036 98.40044416 10.18530273 104.15698242 C10.18928474 157.65467411 10.18928474 157.65467411 9.61328125 182.27734375 C9.59073808 183.41636737 9.59073808 183.41636737 9.56773949 184.57840157 C9.52468696 186.64637214 9.46871775 188.71350465 9.4074707 190.78100586 C9.37724319 191.90002792 9.34701569 193.01904999 9.31587219 194.17198181 C9.00276285 196.97526404 8.31470912 198.55468261 7 201 C7.00092179 200.26766679 7.00184359 199.53533358 7.00279331 198.78080845 C7.0250738 180.79367177 7.04151968 162.80653792 7.05181217 144.8193903 C7.0569244 136.1202297 7.06386773 127.42107843 7.07543945 118.72192383 C7.08554413 111.12188171 7.09189007 103.52184635 7.09408849 95.92179769 C7.09536943 91.91388607 7.09828229 87.90599376 7.10573006 83.89808846 C7.12386623 73.59810307 7.09546715 63.29957894 7 53 C6.99386358 52.25803045 6.98772716 51.5160609 6.98140478 50.75160742 C6.94212784 46.25995764 6.87896299 41.76961477 6.78485763 37.27876937 C6.74555844 35.23651291 6.72355939 33.19394572 6.70232487 31.15142155 C6.3810728 16.53208335 6.3810728 16.53208335 0 4 C0 2.68 0 1.36 0 0 Z " fill="#A152A1" transform="translate(231,224)"/>
<path d="M0 0 C9.89506132 2.49565706 21.46267639 5.83477472 27 15 C28.16662195 18.57277973 28.3582611 20.16405743 26.875 23.625 C23.03890853 28.4840492 18.72099766 30.74970323 13 32.9375 C12.33991943 33.19273437 11.67983887 33.44796875 10.99975586 33.7109375 C9.64700027 34.23288855 8.29274949 34.75098141 6.93701172 35.26513672 C5.18514475 35.92975981 3.43797665 36.60673634 1.69140625 37.28515625 C-2.84219631 39.04539395 -7.38651186 40.77491406 -11.9453125 42.46875 C-12.62924072 42.72333984 -13.31316895 42.97792969 -14.01782227 43.24023438 C-15.93936814 43.95424641 -17.86221887 44.66474401 -19.78515625 45.375 C-24.15170307 47.02774334 -28.44942176 48.83868393 -32.75463867 50.64404297 C-38.36292176 52.98726153 -43.99511556 55.27178517 -49.625 57.5625 C-50.77484375 58.03107422 -51.9246875 58.49964844 -53.109375 58.98242188 C-55.35561604 59.89703596 -57.60328966 60.8081414 -59.85253906 61.71533203 C-61.88393932 62.54446856 -63.90754659 63.39308813 -65.92089844 64.26513672 C-66.80036133 64.64041504 -67.67982422 65.01569336 -68.5859375 65.40234375 C-69.34696777 65.73613037 -70.10799805 66.06991699 -70.89208984 66.41381836 C-73.32206607 67.08956227 -74.64594263 66.81901996 -77 66 C-74.8765984 65.16260219 -72.7512272 64.33019717 -70.625 63.5 C-69.44164062 63.0359375 -68.25828125 62.571875 -67.0390625 62.09375 C-64 61 -64 61 -62 61 C-61.67 59.68 -61.34 58.36 -61 57 C-55.555 56.505 -55.555 56.505 -50 56 C-50 55.34 -50 54.68 -50 54 C-46.7 53.34 -43.4 52.68 -40 52 C-39.67 51.01 -39.34 50.02 -39 49 C-37.00390625 48.33984375 -37.00390625 48.33984375 -34.5625 47.9375 C-30.85836343 47.36828485 -30.85836343 47.36828485 -28 45 C-25.77032984 44.26821082 -23.51553676 43.61179052 -21.25 43 C-16.7837046 41.78364721 -12.37844271 40.50425026 -8 39 C-8 38.34 -8 37.68 -8 37 C-5.41877492 36.15960114 -2.83536099 35.32749444 -0.25 34.5 C0.47960937 34.26152344 1.20921875 34.02304688 1.9609375 33.77734375 C2.66992188 33.55175781 3.37890625 33.32617188 4.109375 33.09375 C4.75874023 32.88427734 5.40810547 32.67480469 6.07714844 32.45898438 C8 32 8 32 12 32 C12.12181641 31.06414062 12.12181641 31.06414062 12.24609375 30.109375 C13 28 13 28 14.84765625 26.953125 C15.57855469 26.72109375 16.30945313 26.4890625 17.0625 26.25 C18.16271484 25.88648438 18.16271484 25.88648438 19.28515625 25.515625 C19.85105469 25.34546875 20.41695313 25.1753125 21 25 C20.979375 23.9275 20.95875 22.855 20.9375 21.75 C20.9857984 18.85209576 21.13155885 16.71387859 22 14 C21.01 13.67 20.02 13.34 19 13 C18.5978125 12.0409375 18.5978125 12.0409375 18.1875 11.0625 C16.43228061 8.01396107 14.34758418 8.01623091 11 7 C9.21481116 6.19788035 7.44448243 5.36215304 5.6875 4.5 C4.82511719 4.0771875 3.96273437 3.654375 3.07421875 3.21875 C1 2 1 2 0 0 Z " fill="#7D417E" transform="translate(376,121)"/>
<path d="M0 0 C-0.66 0.33 -1.32 0.66 -2 1 C-2.33 1.99 -2.66 2.98 -3 4 C-4.27875 4.12375 -5.5575 4.2475 -6.875 4.375 C-10.34790936 4.69042399 -10.34790936 4.69042399 -13 7 C-15.2757413 7.8491572 -17.5792803 8.52368113 -19.90625 9.21875 C-22.17829143 9.90142987 -22.17829143 9.90142987 -24 12 C-26.1640625 12.1953125 -26.1640625 12.1953125 -28.625 12.125 C-29.44226563 12.10695313 -30.25953125 12.08890625 -31.1015625 12.0703125 C-31.72804687 12.04710938 -32.35453125 12.02390625 -33 12 C-33.33 13.32 -33.66 14.64 -34 16 C-35.093125 16.28875 -36.18625 16.5775 -37.3125 16.875 C-41.04013845 17.81893204 -41.04013845 17.81893204 -44 20 C-45.155 20.144375 -46.31 20.28875 -47.5 20.4375 C-50.93130203 20.63832921 -50.93130203 20.63832921 -52.5 22.5 C-54.85850112 24.85850112 -57.7787472 24.53982103 -61 25 C-61.474375 25.49371094 -61.94875 25.98742187 -62.4375 26.49609375 C-64.46953708 28.45192944 -65.72264542 28.41900335 -68.5 28.5625 C-72.00433726 28.75523855 -72.92949437 28.95299625 -76 31 C-77.5159375 31.495 -77.5159375 31.495 -79.0625 32 C-82.08055734 32.78621891 -82.08055734 32.78621891 -84 35 C-84.45213602 38.99386816 -84.4392997 41.25656974 -82.375 44.75 C-79.76851947 47.21929734 -77.28340945 48.5821641 -74 50 C-75.485 50.495 -75.485 50.495 -77 51 C-80 49.25 -80 49.25 -83 47 C-83.8971875 46.38125 -83.8971875 46.38125 -84.8125 45.75 C-86.86096391 42.73121108 -87.32377168 39.55474327 -87 36 C-82.70935047 29.02769451 -75.87470375 26.13773194 -68.375 23.4375 C-66.96318144 22.92155757 -65.55175671 22.4045368 -64.140625 21.88671875 C-62.94083008 21.44851807 -62.94083008 21.44851807 -61.71679688 21.00146484 C-56.17131689 18.95729169 -50.65038876 16.84771921 -45.125 14.75 C-43.89064209 14.28360107 -42.65628418 13.81720215 -41.38452148 13.33666992 C-35.06709091 10.94716539 -28.76623432 8.52273813 -22.48828125 6.03125 C-21.30153809 5.56364258 -20.11479492 5.09603516 -18.89208984 4.61425781 C-16.63223088 3.72181315 -14.37586275 2.82046473 -12.12353516 1.90917969 C-11.11210449 1.51118164 -10.10067383 1.11318359 -9.05859375 0.703125 C-8.17486084 0.34895508 -7.29112793 -0.00521484 -6.38061523 -0.37011719 C-3.79972079 -1.05299153 -2.4816557 -0.89378465 0 0 Z " fill="#B269D4" transform="translate(165,98)"/>
<path d="M0 0 C4.42848835 7.77157321 3.18060988 18.55941796 3.31640625 27.26171875 C3.33718735 28.41001663 3.35796844 29.55831451 3.37937927 30.7414093 C3.42238718 33.16424304 3.46345814 35.58711187 3.50268555 38.01000977 C3.56160415 41.63242157 3.62694307 45.25467189 3.69335938 48.87695312 C4.16526765 75.52198873 3.98862616 102.15572942 3.71246052 128.80182934 C3.66213171 133.66749918 3.61564932 138.5331388 3.578125 143.39892578 C3.54119246 148.17940498 3.49488619 152.95970825 3.44193649 157.74003601 C3.42352914 159.54201733 3.40837188 161.34403514 3.39665604 163.14607239 C3.37970382 165.65420701 3.35067183 168.16193778 3.31884766 170.66992188 C3.31668747 171.39826736 3.31452728 172.12661285 3.31230164 172.87702942 C3.19384525 180.21475362 1.56936238 186.51025021 -2 193 C-2.66 193 -3.32 193 -4 193 C-4 193.66 -4 194.32 -4 195 C-7.66430125 197.32011034 -10.85435257 197.26783151 -15.125 197.25 C-16.36507812 197.25515625 -17.60515625 197.2603125 -18.8828125 197.265625 C-22 197 -22 197 -24 195 C-18.39 195 -12.78 195 -7 195 C-6.67 193.68 -6.34 192.36 -6 191 C-4.0625 188.25 -4.0625 188.25 -2 186 C-1.34 186 -0.68 186 0 186 C1.08977271 152.8363612 1.15658987 119.67836783 1.12856841 86.50113237 C1.1242133 80.73248183 1.12734396 74.96385303 1.1321975 69.19520384 C1.13676834 63.52789805 1.13736172 57.86060151 1.13475883 52.19329447 C1.13322543 48.85213705 1.13333269 45.51100574 1.13629532 42.16984749 C1.1460779 28.07830971 1.02033274 14.05855611 0 0 Z " fill="#683869" transform="translate(239,239)"/>
<path d="M0 0 C1.02770508 0.01740234 1.02770508 0.01740234 2.07617188 0.03515625 C6.83318723 0.26407903 9.42618655 1.60046777 12.8125 4.875 C6.9375 4 6.9375 4 5.8125 2.875 C3.79655418 2.64072222 1.774026 2.46163876 -0.25 2.3125 C-1.35472656 2.22871094 -2.45945312 2.14492187 -3.59765625 2.05859375 C-4.45230469 1.99800781 -5.30695313 1.93742188 -6.1875 1.875 C-6.45404325 2.48033538 -6.72058651 3.08567076 -6.99520683 3.70934963 C-8.22252245 5.93861388 -9.34682408 6.90716705 -11.26419067 8.52540588 C-16.35665121 14.40130282 -15.01588071 23.13921698 -14.96044922 30.46850586 C-14.96862429 32.27248454 -14.97942917 34.07645293 -14.99266052 35.88040161 C-15.02106805 40.76640856 -15.01275397 45.65174071 -14.99779272 50.53778148 C-14.98840743 55.64810754 -15.01286826 60.75826952 -15.03372192 65.86854553 C-15.06805653 75.54047564 -15.07200043 85.2121693 -15.06499684 94.88414818 C-15.05850383 105.89747386 -15.0859344 116.91063356 -15.11619925 127.92391002 C-15.17768406 150.57429026 -15.19661709 173.22454592 -15.1875 195.875 C-15.5175 195.875 -15.8475 195.875 -16.1875 195.875 C-16.3745341 171.92686049 -16.51553007 147.97883074 -16.60199738 124.0301075 C-16.6432162 112.90979698 -16.69939384 101.78994076 -16.79101562 90.66992188 C-16.87085235 80.97560532 -16.92238924 71.28161783 -16.94020796 61.58698165 C-16.9506211 56.45542204 -16.97502398 51.32480367 -17.03334045 46.1935463 C-17.08783944 41.35879667 -17.10435326 36.52537149 -17.09236145 31.69034386 C-17.09455361 29.92065788 -17.11035162 28.1509254 -17.1411438 26.38150597 C-17.29785154 16.90800295 -17.04022708 9.90584109 -10.30649567 2.5346508 C-6.9154401 -0.12130937 -4.18275599 -0.40826901 0 0 Z " fill="#CD71E1" transform="translate(74.1875,158.125)"/>
<path d="M0 0 C1.33297119 0.48267334 1.33297119 0.48267334 2.69287109 0.97509766 C14.65148483 5.30986715 26.47189104 9.94952624 38.22363281 14.81518555 C46.08236496 18.06272075 54.01364481 21.08234875 62 24 C62 24.33 62 24.66 62 25 C52.7454324 25.63580999 52.7454324 25.63580999 49.875 23.1875 C49.25625 22.465625 48.6375 21.74375 48 21 C43.16881188 18.53620118 38.34129158 17.73311845 33 17 C32.01 16.34 31.02 15.68 30 15 C27.43620582 14.43904017 24.87183088 14.05256767 22.27734375 13.66015625 C20 13 20 13 18 10 C15.67793475 9.29508733 13.34406932 8.62787571 11 8 C10.34 7.34 9.68 6.68 9 6 C7.01178687 5.60235737 5.01055661 5.26224651 3 5 C3 4.34 3 3.68 3 3 C2.27554688 2.89042969 1.55109375 2.78085938 0.8046875 2.66796875 C-0.16210938 2.50941406 -1.12890625 2.35085937 -2.125 2.1875 C-3.07632813 2.03667969 -4.02765625 1.88585937 -5.0078125 1.73046875 C-8 1 -8 1 -10.75 -0.55078125 C-15.19458571 -2.53268185 -19.06615533 -2.43930847 -23.875 -2.375 C-24.73480469 -2.38660156 -25.59460938 -2.39820312 -26.48046875 -2.41015625 C-30.82061374 -2.39039838 -34.34179879 -2.05554885 -38.3828125 -0.4140625 C-42.01508446 1.00589695 -42.57643968 1.13553267 -46 0 C-29.65110369 -6.49317868 -16.56104968 -6.13486009 0 0 Z " fill="#824E96" transform="translate(264,76)"/>
<path d="M0 0 C5.41295308 0.45872484 8.33829253 1.14259798 13 4 C18.41135702 6.16454281 23.86926703 8.03687537 29.6875 8.625 C30.780625 8.74875 31.87375 8.8725 33 9 C33.495 9.99 33.495 9.99 34 11 C35.7015625 11.2165625 35.7015625 11.2165625 37.4375 11.4375 C38.613125 11.623125 39.78875 11.80875 41 12 C41.66 12.99 42.32 13.98 43 15 C49.03229892 18.42236487 55.28825542 20.44191644 62 22 C62.99 22.66 63.98 23.32 65 24 C66.65549531 24.38499891 68.3222433 24.72793135 70 25 C70 25.66 70 26.32 70 27 C70.82371094 27.09410156 71.64742188 27.18820312 72.49609375 27.28515625 C76.6749195 28.13769261 80.2023732 29.66782469 84.0625 31.4375 C85.4489283 32.06184329 86.83564062 32.68555634 88.22265625 33.30859375 C88.86992676 33.6010498 89.51719727 33.89350586 90.18408203 34.19482422 C92.43242376 35.19173616 94.707198 36.11058948 97 37 C96.505 37.99 96.505 37.99 96 39 C94.87207031 38.5467334 93.74414062 38.0934668 92.58203125 37.62646484 C88.31844695 35.91368368 84.05388921 34.20333728 79.7890625 32.49365234 C77.95807505 31.75926995 76.12733751 31.02426408 74.296875 30.28857422 C60.53487226 24.75812027 46.74452777 19.35631884 32.75 14.4375 C26.39704496 12.18090737 20.19300132 9.66081212 14 7 C12.71362764 6.4503196 11.42716504 5.90085033 10.140625 5.3515625 C6.75831692 3.90591215 3.37856398 2.45438183 0 1 C0 0.67 0 0.34 0 0 Z " fill="#77437B" transform="translate(76,379)"/>
<path d="M0 0 C-7.67146846 3.22858822 -15.3564408 6.42280151 -23.11328125 9.44140625 C-25.67983116 10.44687861 -28.17636823 11.53664506 -30.66796875 12.71484375 C-43.05536048 18.32557492 -58.26144886 19.77833581 -71.42578125 15.86328125 C-74.4054584 14.72677051 -77.20447535 13.52880254 -80 12 C-80 11.67 -80 11.34 -80 11 C-74.88689982 10.91029649 -70.03890228 10.9716526 -65 12 C-64.67 12.66 -64.34 13.32 -64 14 C-58.06 14.33 -52.12 14.66 -46 15 C-46 14.34 -46 13.68 -46 13 C-45.15695313 12.80664062 -44.31390625 12.61328125 -43.4453125 12.4140625 C-42.34960938 12.15367187 -41.25390625 11.89328125 -40.125 11.625 C-39.03445313 11.36976563 -37.94390625 11.11453125 -36.8203125 10.8515625 C-33.89591545 10.21093785 -33.89591545 10.21093785 -32 8 C-28.5 7.5 -28.5 7.5 -25 7 C-24.34 6.34 -23.68 5.68 -23 5 C-20.99461671 4.77717963 -18.98700173 4.55812533 -16.97265625 4.44140625 C-14.49915075 3.88792878 -13.75833809 2.77632621 -12 1 C-9.84375 0.234375 -9.84375 0.234375 -7.5 -0.25 C-6.7265625 -0.42015625 -5.953125 -0.5903125 -5.15625 -0.765625 C-3 -1 -3 -1 0 0 Z " fill="#9B54A0" transform="translate(299,189)"/>
<path d="M0 0 C7.57586787 1.34651871 21.4741515 4.4741515 27 10 C28.59987236 10.27615058 30.205333 10.52007625 31.8125 10.75 C36.98434389 11.66461361 41.34433 13.24494518 46.12890625 15.3671875 C52.59268392 18.1743759 59.27846123 20.4715069 65.89916992 22.87719727 C66.91470947 23.25158936 67.93024902 23.62598145 68.9765625 24.01171875 C69.89518066 24.34647217 70.81379883 24.68122559 71.76025391 25.02612305 C74 26 74 26 76 28 C71.64601683 27.48776669 68.02201712 26.70935728 64 25 C62.783125 24.67 61.56625 24.34 60.3125 24 C57 23 57 23 55 21 C48.58433682 18.05302505 41.97630162 17.37815467 35 17 C35 15.68 35 14.36 35 13 C34.22914062 13.03480469 33.45828125 13.06960937 32.6640625 13.10546875 C31.66117188 13.13253906 30.65828125 13.15960938 29.625 13.1875 C28.12839844 13.23970703 28.12839844 13.23970703 26.6015625 13.29296875 C25.74304688 13.19628906 24.88453125 13.09960938 24 13 C23.34 12.01 22.68 11.02 22 10 C19.68970915 9.25740651 17.354248 8.588562 15 8 C14.34 7.67 13.68 7.34 13 7 C13 6.34 13 5.68 13 5 C10.03 5 7.06 5 4 5 C3.34 3.68 2.68 2.36 2 1 C1.34 0.67 0.68 0.34 0 0 Z " fill="#B865D6" transform="translate(88,163)"/>
<path d="M0 0 C9.89506132 2.49565706 21.46267639 5.83477472 27 15 C28.21462536 18.71979017 28.37999446 20.20382114 26.6875 23.75 C24.09668533 27.20441956 22.68299897 28.25442065 18.5 29.0625 C15.14540186 29.71952131 15.14540186 29.71952131 12 31 C12.5625 29.125 12.5625 29.125 14 27 C17.625 25.75 17.625 25.75 21 25 C20.979375 23.9275 20.95875 22.855 20.9375 21.75 C20.9857984 18.85209576 21.13155885 16.71387859 22 14 C21.01 13.67 20.02 13.34 19 13 C18.731875 12.360625 18.46375 11.72125 18.1875 11.0625 C16.43228061 8.01396107 14.34758418 8.01623091 11 7 C9.21481116 6.19788035 7.44448243 5.36215304 5.6875 4.5 C4.82511719 4.0771875 3.96273438 3.654375 3.07421875 3.21875 C1 2 1 2 0 0 Z " fill="#BF5FB2" transform="translate(376,121)"/>
<path d="M0 0 C1.60379341 -0.05416188 3.20811406 -0.09286638 4.8125 -0.125 C5.70582031 -0.14820313 6.59914063 -0.17140625 7.51953125 -0.1953125 C10 0 10 0 13 2 C14.175625 2.144375 15.35125 2.28875 16.5625 2.4375 C18.2640625 2.7159375 18.2640625 2.7159375 20 3 C20.99 4.485 20.99 4.485 22 6 C24.13255104 6.46885852 24.13255104 6.46885852 26.5 6.5 C28.90625 6.59375 28.90625 6.59375 31 7 C31.99 8.485 31.99 8.485 33 10 C34.010625 10.495 35.02125 10.99 36.0625 11.5 C39 13 39 13 40 16 C29.07042702 12.96537816 18.66819899 8.84848287 8.390625 4.0703125 C5.64981725 2.84321883 2.87800042 1.85562175 0 1 C0 0.67 0 0.34 0 0 Z " fill="#A861C7" transform="translate(91,149)"/>
<path d="M0 0 C-0.99 0.33 -1.98 0.66 -3 1 C-3 1.66 -3 2.32 -3 3 C-4.98 3.33 -6.96 3.66 -9 4 C-9 4.66 -9 5.32 -9 6 C-12 8 -12 8 -15.5625 8.5 C-19.0571192 8.65847757 -19.0571192 8.65847757 -21 11 C-22.98828125 11.30859375 -22.98828125 11.30859375 -25.3125 11.4375 C-29.34691387 11.79725665 -31.57101792 12.80193457 -35 15 C-36.40649098 15.39263419 -37.82474448 15.74465541 -39.25 16.0625 C-41.10625 16.5265625 -41.10625 16.5265625 -43 17 C-43.33 17.66 -43.66 18.32 -44 19 C-46.64 19 -49.28 19 -52 19 C-49.8736068 16.8736068 -48.55182452 16.3027806 -45.7734375 15.265625 C-44.48445557 14.77980957 -44.48445557 14.77980957 -43.16943359 14.28417969 C-42.24727051 13.94290039 -41.32510742 13.60162109 -40.375 13.25 C-39.43092285 12.89583008 -38.4868457 12.54166016 -37.51416016 12.17675781 C-35.58972845 11.4553805 -33.66443422 10.73629995 -31.73828125 10.01953125 C-29.3024339 9.11260378 -26.86923545 8.19913225 -24.4375 7.28125 C-21.80953693 6.28943178 -19.17955472 5.30344718 -16.546875 4.32421875 C-14.24053105 3.46314981 -11.93816705 2.59131778 -9.640625 1.70703125 C-8.64546875 1.32933594 -7.6503125 0.95164062 -6.625 0.5625 C-5.77164063 0.23378906 -4.91828125 -0.09492187 -4.0390625 -0.43359375 C-2 -1 -2 -1 0 0 Z " fill="#824E97" transform="translate(217,78)"/>
<path d="M0 0 C0.67353516 0.06574219 1.34707031 0.13148438 2.04101562 0.19921875 C3.0687207 0.21662109 3.0687207 0.21662109 4.1171875 0.234375 C8.87420285 0.46329778 11.46720217 1.79968652 14.85351562 5.07421875 C8.97851562 4.19921875 8.97851562 4.19921875 7.85351562 3.07421875 C5.83756981 2.83994097 3.81504162 2.66085751 1.79101562 2.51171875 C0.68628906 2.42792969 -0.4184375 2.34414062 -1.55664062 2.2578125 C-2.41128906 2.19722656 -3.2659375 2.13664063 -4.14648438 2.07421875 C-4.54540894 2.96548462 -4.54540894 2.96548462 -4.95239258 3.87475586 C-6.16749473 6.11291887 -7.44802867 7.48962592 -9.25195312 9.265625 C-12.88848023 13.43917798 -12.81319272 16.66327811 -12.45898438 22.01171875 C-12.39658953 23.84744973 -12.34109273 25.68342297 -12.29101562 27.51953125 C-12.25959473 28.53950195 -12.22817383 29.55947266 -12.19580078 30.61035156 C-12.09714873 37.53943754 -12.40170731 44.46276391 -12.64648438 51.38671875 C-12.6954084 52.84430829 -12.74399933 54.30190905 -12.79223633 55.75952148 C-12.90665594 59.19788517 -13.02529399 62.63608621 -13.14648438 66.07421875 C-13.47648437 66.07421875 -13.80648437 66.07421875 -14.14648438 66.07421875 C-14.35026477 58.42494519 -14.48981466 50.77637779 -14.5859375 43.125 C-14.62603006 40.52545007 -14.68052039 37.92607896 -14.75 35.32714844 C-14.84767046 31.57832623 -14.89255638 27.83189896 -14.92773438 24.08203125 C-14.96902466 22.93058624 -15.01031494 21.77914124 -15.05285645 20.59280396 C-15.05708381 12.89442949 -13.29755438 8.74493408 -8.26994324 2.91351318 C-5.54444072 0.55274147 -3.55960982 -0.07493915 0 0 Z " fill="#C571E8" transform="translate(72.146484375,157.92578125)"/>
<path d="M0 0 C2.31 0 4.62 0 7 0 C6.38125 0.28875 5.7625 0.5775 5.125 0.875 C2.86674235 1.93720042 2.86674235 1.93720042 1 4 C-1.31956908 4.61287697 -3.64296818 5.0144199 -6.00390625 5.4375 C-6.66261719 5.623125 -7.32132812 5.80875 -8 6 C-8.33 6.66 -8.66 7.32 -9 8 C-11.28515625 8.6328125 -11.28515625 8.6328125 -14.0625 9.125 C-14.98160156 9.29257813 -15.90070313 9.46015625 -16.84765625 9.6328125 C-17.91306641 9.81457031 -17.91306641 9.81457031 -19 10 C-19 10.66 -19 11.32 -19 12 C-22.63 12.33 -26.26 12.66 -30 13 C-30.33 14.32 -30.66 15.64 -31 17 C-33.28515625 18.046875 -33.28515625 18.046875 -36.0625 18.75 C-37.44115234 19.11351562 -37.44115234 19.11351562 -38.84765625 19.484375 C-39.55792969 19.65453125 -40.26820313 19.8246875 -41 20 C-41 19.01 -41 18.02 -41 17 C-40.43410156 16.89042969 -39.86820312 16.78085938 -39.28515625 16.66796875 C-38.55167969 16.50941406 -37.81820313 16.35085937 -37.0625 16.1875 C-36.33160156 16.03667969 -35.60070312 15.88585937 -34.84765625 15.73046875 C-34.23792969 15.48941406 -33.62820313 15.24835938 -33 15 C-32.67 14.01 -32.34 13.02 -32 12 C-29.78515625 11.12109375 -29.78515625 11.12109375 -27.0625 10.4375 C-23.11218472 9.49219545 -23.11218472 9.49219545 -20 7 C-17.6171875 6.3671875 -17.6171875 6.3671875 -14.875 5.875 C-13.96492188 5.70742187 -13.05484375 5.53984375 -12.1171875 5.3671875 C-11.41851562 5.24601563 -10.71984375 5.12484375 -10 5 C-10 4.34 -10 3.68 -10 3 C-7.03 3 -4.06 3 -1 3 C-0.67 2.01 -0.34 1.02 0 0 Z " fill="#CD69C5" transform="translate(345,165)"/>
<path d="M0 0 C6.15275907 -0.67455498 10.86375559 1.73679409 16.375 4.125 C18.33253028 4.95112419 20.29087198 5.77532823 22.25 6.59765625 C23.21679688 7.00516113 24.18359375 7.41266602 25.1796875 7.83251953 C29.21121761 9.50138873 33.28306489 11.04888952 37.375 12.5625 C38.05224121 12.81338379 38.72948242 13.06426758 39.42724609 13.32275391 C40.95043158 13.88473321 42.47502931 14.4428832 44 15 C44 15.33 44 15.66 44 16 C34.7454324 16.63580999 34.7454324 16.63580999 31.875 14.1875 C31.25625 13.465625 30.6375 12.74375 30 12 C25.16881188 9.53620118 20.34129158 8.73311845 15 8 C14.01 7.34 13.02 6.68 12 6 C9.4345043 5.47609002 6.87080829 5.11579439 4.27734375 4.7578125 C2 4 2 4 0.69140625 1.9296875 C0.46324219 1.29289062 0.23507812 0.65609375 0 0 Z " fill="#7E488B" transform="translate(282,85)"/>
<path d="M0 0 C0.66 0.33 1.32 0.66 2 1 C-0.57979641 2.54787785 -3.15985898 4.09446212 -5.75 5.625 C-7.89036142 6.81214791 -7.89036142 6.81214791 -9 8 C-10.6396875 8.185625 -10.6396875 8.185625 -12.3125 8.375 C-16.08537894 9.01447101 -17.1397749 9.69336685 -20 12 C-21.9959722 12.67863055 -23.99568551 13.34641919 -26 14 C-28.33984763 15.92446296 -28.33984763 15.92446296 -28.375 19.3125 C-27.93437973 23.64526599 -27.13202889 25.03281473 -24 28 C-20.88337092 29.80979141 -20.88337092 29.80979141 -18 31 C-18.99 31.33 -19.98 31.66 -21 32 C-24 30.25 -24 30.25 -27 28 C-27.598125 27.5875 -28.19625 27.175 -28.8125 26.75 C-30.86096391 23.73121108 -31.32377168 20.55474327 -31 17 C-26.40240842 9.52891368 -18.70872309 6.67081007 -10.75 3.8125 C-10.04359375 3.55275391 -9.3371875 3.29300781 -8.609375 3.02539062 C-5.75149934 1.97804415 -2.88761734 0.96253911 0 0 Z " fill="#744692" transform="translate(109,117)"/>
<path d="M0 0 C3.92351798 0.84644423 7.62853471 2.27530886 11.375 3.6875 C12.07963379 3.95224121 12.78426758 4.21698242 13.51025391 4.48974609 C19.34090032 6.70353492 25.06353868 9.11771181 30.78125 11.609375 C35.15186298 13.49764954 39.56721238 15.26365462 44 17 C40.33360951 18.22213016 38.64706569 17.63855512 34.9375 16.6875 C33.87402344 16.42324219 32.81054688 16.15898437 31.71484375 15.88671875 C29 15 29 15 27 13 C24.66989091 12.32215008 22.33640176 11.65583207 20 11 C19.01 10.34 18.02 9.68 17 9 C15.34450469 8.61500109 13.6777567 8.27206865 12 8 C12 7.34 12 6.68 12 6 C11.38511719 5.81824219 10.77023438 5.63648438 10.13671875 5.44921875 C9.32847656 5.19785156 8.52023438 4.94648438 7.6875 4.6875 C6.88699219 4.44386719 6.08648437 4.20023438 5.26171875 3.94921875 C2.90035427 2.95817977 1.66120007 1.91925057 0 0 Z " fill="#7A3F87" transform="translate(164,191)"/>
<path d="M0 0 C4.14005802 0.67723471 7.77526082 1.98660333 11.6640625 3.546875 C12.2967807 3.79995422 12.9294989 4.05303345 13.58139038 4.31378174 C14.9185313 4.84970708 16.25483136 5.38773459 17.59033203 5.92773438 C19.59594324 6.73825736 21.60432806 7.54155182 23.61328125 8.34375 C32.5481166 11.92653188 41.40561217 15.65222183 50 20 C45.02235961 20.35554574 42.37141898 19.27313787 38 17 C36.57095389 16.61313116 35.13254971 16.25948077 33.6875 15.9375 C32.470625 15.628125 31.25375 15.31875 30 15 C29.67 14.34 29.34 13.68 29 13 C27.11191226 12.25825125 25.21904448 11.52651559 23.3046875 10.85546875 C21.00399751 10.00148382 18.83766003 8.99658461 16.625 7.9375 C12.50187013 6.03727493 8.5572811 5.24973785 4.06640625 4.6875 C2 4 2 4 0.71484375 1.9375 C0.47894531 1.298125 0.24304688 0.65875 0 0 Z " fill="#85468C" transform="translate(326,101)"/>
<path d="M0 0 C2.125 0.375 2.125 0.375 4 1 C3.38511719 1.67095703 3.38511719 1.67095703 2.7578125 2.35546875 C2.21898437 2.96003906 1.68015625 3.56460938 1.125 4.1875 C0.59132813 4.77917969 0.05765625 5.37085938 -0.4921875 5.98046875 C-3.40167969 9.87737927 -4.248697 13.53574421 -4.31884766 18.34106445 C-4.33871735 19.3817659 -4.35858704 20.42246735 -4.37905884 21.4947052 C-4.39061005 22.6063353 -4.40216125 23.71796539 -4.4140625 24.86328125 C-4.43342865 26.01040085 -4.4527948 27.15752045 -4.4727478 28.33940125 C-4.53244467 31.9970256 -4.57889002 35.65468159 -4.625 39.3125 C-4.66318883 41.79493547 -4.70224108 44.27735782 -4.7421875 46.75976562 C-4.83813819 52.83972712 -4.92321478 58.91976789 -5 65 C-5.33 65 -5.66 65 -6 65 C-6.10181551 57.47448341 -6.17163986 49.94914593 -6.21972656 42.4230957 C-6.23978303 39.86541099 -6.26703505 37.30777179 -6.30175781 34.75024414 C-6.35053672 31.06385025 -6.37302945 27.37806516 -6.390625 23.69140625 C-6.42159271 21.98930748 -6.42159271 21.98930748 -6.45318604 20.25282288 C-6.45510986 13.37292225 -5.64853621 7.93211184 -2 2 C-1.34 1.34 -0.68 0.68 0 0 Z " fill="#72468D" transform="translate(61,161)"/>
<path d="M0 0 C5.17366315 -0.30433313 7.68990563 0.23711899 12 3 C13.03125 3.165 14.0625 3.33 15.125 3.5 C18 4 18 4 19.421875 5.4375 C21.26920709 7.26654167 22.65055014 7.75500434 25.125 8.5 C25.92164063 8.75007812 26.71828125 9.00015625 27.5390625 9.2578125 C29.11664005 9.73358986 30.69472184 10.20770034 32.2734375 10.6796875 C37.9536539 12.45350946 42.89691624 14.94780097 48 18 C46 19 46 19 44.25439453 18.50610352 C43.55427246 18.21662842 42.85415039 17.92715332 42.1328125 17.62890625 C41.33891113 17.3055127 40.54500977 16.98211914 39.72705078 16.64892578 C38.86837402 16.29040527 38.00969727 15.93188477 37.125 15.5625 C35.31256515 14.82145521 33.50006314 14.08057468 31.6875 13.33984375 C30.75164062 12.95425293 29.81578125 12.56866211 28.8515625 12.17138672 C24.28661919 10.29616429 19.70617466 8.46012388 15.125 6.625 C14.30016113 6.29185791 13.47532227 5.95871582 12.62548828 5.61547852 C8.45399572 3.93922501 4.2869348 2.36465127 0 1 C0 0.67 0 0.34 0 0 Z " fill="#724587" transform="translate(133,166)"/>
<path d="M0 0 C1.34191406 -0.0309375 1.34191406 -0.0309375 2.7109375 -0.0625 C8.08597012 -0.09421111 11.51337562 0.46918899 16.25 3.25 C19.98771834 3.9636724 19.98771834 3.9636724 23.25 4.25 C23.25 4.58 23.25 4.91 23.25 5.25 C22.074375 5.311875 20.89875 5.37375 19.6875 5.4375 C18.69556641 5.48970703 18.69556641 5.48970703 17.68359375 5.54296875 C14.8816996 5.20566207 12.73171477 4.11372247 10.18334961 2.95581055 C6.80179226 1.72130085 3.38148365 1.67678584 -0.1875 1.5625 C-0.91904297 1.52833984 -1.65058594 1.49417969 -2.40429688 1.45898438 C-4.18569562 1.37748247 -5.96781749 1.31204477 -7.75 1.25 C-7.75 2.24 -7.75 3.23 -7.75 4.25 C-8.56984375 4.35957031 -9.3896875 4.46914062 -10.234375 4.58203125 C-11.31203125 4.74058594 -12.3896875 4.89914063 -13.5 5.0625 C-14.56734375 5.21332031 -15.6346875 5.36414063 -16.734375 5.51953125 C-19.84170813 6.27221427 -21.30539462 7.27716057 -23.75 9.25 C-26.5 9.4375 -26.5 9.4375 -28.75 9.25 C-27.76 8.92 -26.77 8.59 -25.75 8.25 C-25.75 7.59 -25.75 6.93 -25.75 6.25 C-22.7551909 4.2534606 -20.63551663 3.56442567 -17.1875 2.6875 C-11.01392296 1.10516219 -6.45935798 0.03659693 0 0 Z " fill="#B568CE" transform="translate(239.75,72.75)"/>
<path d="M0 0 C7.39343331 0.62656214 7.39343331 0.62656214 10.1953125 2.3515625 C14.00192716 4.58887641 17.98742991 5.7518636 22.1875 7.0625 C23.80775798 7.56859159 25.42634576 8.08007078 27.04296875 8.59765625 C27.75477295 8.81945557 28.46657715 9.04125488 29.19995117 9.26977539 C31 10 31 10 33 12 C35.04788482 12.8375807 37.1236602 13.52034987 39.22265625 14.21875 C41 15 41 15 42 17 C35.09063468 15.32706312 28.64857204 13.14821083 22.125 10.328125 C17.8015048 8.49063954 13.40813836 6.85416696 9.0078125 5.2109375 C5.9106773 3.96403891 2.96540094 2.53138616 0 1 C0 0.67 0 0.34 0 0 Z " fill="#6E3F78" transform="translate(76,379)"/>
<path d="M0 0 C-0.66 0.33 -1.32 0.66 -2 1 C-2.33 1.99 -2.66 2.98 -3 4 C-4.27875 4.12375 -5.5575 4.2475 -6.875 4.375 C-10.34790936 4.69042399 -10.34790936 4.69042399 -13 7 C-15.5479411 7.61976946 -18.09993624 8.01626869 -20.6875 8.4375 C-23.17757117 8.83093987 -23.17757117 8.83093987 -25 11 C-27.68839385 11.26991906 -30.29141936 11.08737357 -33 11 C-28.09630836 7.73087224 -22.53930675 5.93892847 -17.0625 3.8125 C-15.86947266 3.33619141 -14.67644531 2.85988281 -13.44726562 2.36914062 C-12.30064453 1.92376953 -11.15402344 1.47839844 -9.97265625 1.01953125 C-8.92343994 0.60807861 -7.87422363 0.19662598 -6.79321289 -0.22729492 C-3.96692424 -1.00914997 -2.69367782 -1.03696287 0 0 Z " fill="#84519A" transform="translate(165,98)"/>
<path d="M0 0 C0.99 0.33 1.98 0.66 3 1 C3 1.66 3 2.32 3 3 C3.66 3 4.32 3 5 3 C5 4.32 5 5.64 5 7 C5.99 7.33 6.98 7.66 8 8 C8 8.99 8 9.98 8 11 C8.598125 11.04125 9.19625 11.0825 9.8125 11.125 C13.08698238 12.43479295 13.51235134 14.90073196 15 18 C16.30144802 19.04115841 17.62797869 20.05377841 19 21 C19 21.66 19 22.32 19 23 C14.23439379 21.59835111 11.04117557 18.84588526 8 15 C8 14.34 8 13.68 8 13 C7.34 13 6.68 13 6 13 C5.18162558 11.58671871 4.37053781 10.16921654 3.5625 8.75 C3.11003906 7.96109375 2.65757813 7.1721875 2.19140625 6.359375 C1.10688398 4.21166532 0.46851284 2.34794939 0 0 Z " fill="#874C92" transform="translate(57,356)"/>
<path d="M0 0 C5.98566585 -0.32649086 11.64812345 0.02426781 17 3 C17.66 4.32 18.32 5.64 19 7 C23.62 7 28.24 7 33 7 C31 9 31 9 28.57421875 9.23046875 C27.62160156 9.21628906 26.66898438 9.20210938 25.6875 9.1875 C24.74261719 9.18105469 23.79773438 9.17460937 22.82421875 9.16796875 C20.12576443 9.00747977 17.63229753 8.59933915 15 8 C15 7.34 15 6.68 15 6 C14.41992188 5.80664062 13.83984375 5.61328125 13.2421875 5.4140625 C8.828125 3.94270833 4.4140625 2.47135417 0 1 C0 0.67 0 0.34 0 0 Z " fill="#BE5EAB" transform="translate(199,426)"/>
<path d="M0 0 C10.94345543 3.58492506 21.77980527 7.37364801 32.37890625 11.88671875 C34.90609525 12.96011497 37.44727496 13.98906549 40 15 C40 15.33 40 15.66 40 16 C35.64601683 15.48776669 32.02201712 14.70935728 28 13 C26.783125 12.67 25.56625 12.34 24.3125 12 C21 11 21 11 19 9 C17.1432966 8.24419219 17.1432966 8.24419219 15 7.625 C9.89092945 6.0050508 4.95479209 4.03777462 0 2 C0 1.34 0 0.68 0 0 Z " fill="#743D86" transform="translate(124,175)"/>
<path d="M0 0 C5.13751903 0.43723566 8.90932463 1.76625903 13.55078125 3.96484375 C16.1538032 5.06500454 18.6954902 5.76069927 21.4375 6.4375 C27.0566662 7.86610158 31.93311294 10.21925721 37 13 C37 13.66 37 14.32 37 15 C30.82600312 13.05031677 24.82487183 10.77314659 18.82568359 8.34667969 C12.57949918 5.820522 6.29602045 3.39949514 0 1 C0 0.67 0 0.34 0 0 Z " fill="#69376B" transform="translate(177,419)"/>
<path d="M0 0 C2.05078125 0.03255208 4.1015625 0.06510417 6.15234375 0.09765625 C2.26726943 2.68770579 -1.50944695 3.24816283 -6.03515625 4.21875 C-8.95928254 5.13253946 -9.80487622 5.95593816 -11.84765625 8.09765625 C-13.86215032 8.38544112 -15.87920811 8.66847023 -17.90625 8.84765625 C-20.19299398 9.1421263 -21.89763863 9.87889524 -23.84765625 11.09765625 C-23.51765625 9.77765625 -23.18765625 8.45765625 -22.84765625 7.09765625 C-22.22117187 6.98808594 -21.5946875 6.87851563 -20.94921875 6.765625 C-19.72332031 6.52779297 -19.72332031 6.52779297 -18.47265625 6.28515625 C-17.66054688 6.13433594 -16.8484375 5.98351562 -16.01171875 5.828125 C-13.48944984 5.22220683 -13.48944984 5.22220683 -11.84765625 2.09765625 C-9.71875 1.62109375 -9.71875 1.62109375 -7.28515625 1.47265625 C-4.4269585 1.28058536 -2.54662806 0.13459979 0 0 Z " fill="#C267C1" transform="translate(295.84765625,185.90234375)"/>
<path d="M0 0 C1.134375 0.020625 2.26875 0.04125 3.4375 0.0625 C3.4375 0.3925 3.4375 0.7225 3.4375 1.0625 C1.890625 1.43375 1.890625 1.43375 0.3125 1.8125 C-4.40324271 3.15165615 -8.0994367 5.5994367 -11.5625 9.0625 C-11.80503813 11.27322977 -11.80503813 11.27322977 -11.6875 13.6875 C-11.66945313 14.50476563 -11.65140625 15.32203125 -11.6328125 16.1640625 C-11.60960938 16.79054687 -11.58640625 17.41703125 -11.5625 18.0625 C-14.65357447 15.64759807 -15.49733001 14.51868991 -16.0625 10.5625 C-15.5625 7.0625 -15.5625 7.0625 -14 4.75 C-10.98680634 2.66394285 -8.10171325 1.93060891 -4.5625 1.0625 C-3.5625 0.0625 -3.5625 0.0625 0 0 Z " fill="#C06FE6" transform="translate(95.5625,125.9375)"/>
<path d="M0 0 C4.7293712 0.64325296 9.07542098 1.92479673 13.5625 3.5 C18.64402073 5.27739217 18.64402073 5.27739217 23.8671875 6.56640625 C26.48310647 7.09821395 27.2229069 8.06837706 29 10 C31.09989652 11.17574711 31.09989652 11.17574711 33 12 C30.54625184 12.89634636 29.33893136 13.11746357 26.8359375 12.25 C26.02382812 11.8375 25.21171875 11.425 24.375 11 C19.11041645 8.45724196 13.76568095 6.28347601 8.3125 4.1875 C7.49765137 3.87361328 6.68280273 3.55972656 5.84326172 3.23632812 C3.89649695 2.48830605 1.94839123 1.74377531 0 1 C0 0.67 0 0.34 0 0 Z " fill="#754383" transform="translate(186,187)"/>
<path d="M0 0 C0.66 0.33 1.32 0.66 2 1 C-0.67194594 4.45781239 -3.91050597 4.90459981 -8 6 C-8.99 6.66 -9.98 7.32 -11 8 C-13.07296379 8.5807525 -15.14947884 9.0050213 -17.2578125 9.4375 C-18.12019531 9.7159375 -18.12019531 9.7159375 -19 10 C-19.33 10.66 -19.66 11.32 -20 12 C-22.64 12 -25.28 12 -28 12 C-25.79672887 9.79672887 -24.28223473 9.2035414 -21.38671875 8.125 C-20.46826172 7.77953125 -19.54980469 7.4340625 -18.60351562 7.078125 C-17.16008789 6.54445313 -17.16008789 6.54445313 -15.6875 6 C-13.79547321 5.29193303 -11.90354304 4.58360784 -10.01171875 3.875 C-9.17084717 3.56304687 -8.32997559 3.25109375 -7.46362305 2.9296875 C-5.72747393 2.27452391 -4.01100553 1.56599571 -2.31176758 0.8203125 C-1.54888428 0.54960938 -0.78600098 0.27890625 0 0 Z " fill="#7C4B93" transform="translate(193,85)"/>
<path d="M0 0 C1.77226453 0.28284018 3.542788 0.57660498 5.3125 0.875 C6.29863281 1.03742188 7.28476562 1.19984375 8.30078125 1.3671875 C11 2 11 2 14 4 C15.010625 4.268125 16.02125 4.53625 17.0625 4.8125 C21.99675727 6.13323267 26.62357873 8.38420797 31 11 C31.33 11.66 31.66 12.32 32 13 C28.18948298 12.32755582 24.59784804 11.43913922 21 10 C20.34 9.01 19.68 8.02 19 7 C16.58392583 6.20201782 16.58392583 6.20201782 13.875 5.8125 C12.96492188 5.65394531 12.05484375 5.49539062 11.1171875 5.33203125 C10.41851562 5.22246094 9.71984375 5.11289063 9 5 C9 4.34 9 3.68 9 3 C7.700625 2.87625 6.40125 2.7525 5.0625 2.625 C2.84765625 2.4140625 2.84765625 2.4140625 1 2 C0.67 1.34 0.34 0.68 0 0 Z " fill="#BB61B9" transform="translate(356,116)"/>
<path d="M0 0 C-0.76183594 0.31453125 -1.52367187 0.6290625 -2.30859375 0.953125 C-3.34113281 1.38109375 -4.37367188 1.8090625 -5.4375 2.25 C-6.52933594 2.70246094 -7.62117188 3.15492188 -8.74609375 3.62109375 C-12.22739597 5.09636348 -15.65305363 6.6670882 -19.0625 8.30078125 C-21 9 -21 9 -25 9 C-24.5 7.0625 -24.5 7.0625 -23 5 C-19.0625 4.4375 -19.0625 4.4375 -16.97265625 4.37109375 C-14.45911435 3.89824923 -13.76732952 2.79444967 -12 1 C-9.84375 0.234375 -9.84375 0.234375 -7.5 -0.25 C-6.7265625 -0.42015625 -5.953125 -0.5903125 -5.15625 -0.765625 C-3 -1 -3 -1 0 0 Z " fill="#613670" transform="translate(299,189)"/>
<path d="M0 0 C6.45468193 0.47839718 11.36454848 2.17977359 17.1875 4.9375 C18.74318532 5.65560743 20.29916681 6.37307365 21.85546875 7.08984375 C22.5726709 7.4235498 23.28987305 7.75725586 24.02880859 8.10107422 C26.3228871 9.14724675 28.64538368 10.09873403 31 11 C30.67 11.66 30.34 12.32 30 13 C15.15 7.06 15.15 7.06 0 1 C0 0.67 0 0.34 0 0 Z " fill="#653368" transform="translate(142,405)"/>
<path d="M0 0 C9.34325819 1.16790727 16.85299234 6.02231562 23 13 C22.67 13.66 22.34 14.32 22 15 C21.5153125 14.52949219 21.030625 14.05898437 20.53125 13.57421875 C16.49832026 9.82824747 13.1428318 7.35226466 7.8984375 5.68359375 C4.87773892 4.59589364 2.56081122 2.92060841 0 1 C0 0.67 0 0.34 0 0 Z " fill="#8E4D9A" transform="translate(208,209)"/>
<path d="M0 0 C0.556875 0.226875 1.11375 0.45375 1.6875 0.6875 C-16.29543377 10.20558208 -16.29543377 10.20558208 -21.6328125 9.2890625 C-22.18710937 9.09054688 -22.74140625 8.89203125 -23.3125 8.6875 C-22.3225 8.6875 -21.3325 8.6875 -20.3125 8.6875 C-20.3125 8.0275 -20.3125 7.3675 -20.3125 6.6875 C-19.43207031 6.43355469 -18.55164063 6.17960938 -17.64453125 5.91796875 C-16.48308594 5.57378906 -15.32164062 5.22960937 -14.125 4.875 C-12.97644531 4.53855469 -11.82789063 4.20210937 -10.64453125 3.85546875 C-7.31071941 2.82821015 -7.31071941 2.82821015 -4.63671875 0.98828125 C-2.3125 -0.3125 -2.3125 -0.3125 0 0 Z " fill="#743E74" transform="translate(395.3125,149.3125)"/>
<path d="M0 0 C0 0.33 0 0.66 0 1 C-1.3921875 1.433125 -1.3921875 1.433125 -2.8125 1.875 C-6.09791667 2.8875 -6.09791667 2.8875 -9 5 C-11.48046875 5.4140625 -11.48046875 5.4140625 -14.1875 5.625 C-15.08855469 5.69976562 -15.98960937 5.77453125 -16.91796875 5.8515625 C-17.60503906 5.90054688 -18.29210937 5.94953125 -19 6 C-19 6.66 -19 7.32 -19 8 C-21.64 8 -24.28 8 -27 8 C-22.63774859 5.09183239 -20.05739378 3.73533174 -14.75 3.875 C-13.85796875 3.89304688 -12.9659375 3.91109375 -12.046875 3.9296875 C-11.03367187 3.96449219 -11.03367187 3.96449219 -10 4 C-9.67 3.01 -9.34 2.02 -9 1 C-5.8035914 -0.06546953 -3.34252724 -0.07427838 0 0 Z " fill="#D76FD6" transform="translate(272,196)"/>
<path d="M0 0 C2.64 0 5.28 0 8 0 C4.0455963 3.9544037 -0.47344146 4.12940095 -5.8359375 4.1953125 C-8.01571097 4.18210175 -10.19544199 4.15837368 -12.375 4.125 C-13.49261719 4.11597656 -14.61023438 4.10695312 -15.76171875 4.09765625 C-18.50803462 4.07418346 -21.25390472 4.04134728 -24 4 C-24 3.67 -24 3.34 -24 3 C-16.08 2.67 -8.16 2.34 0 2 C0 1.34 0 0.68 0 0 Z " fill="#844D8A" transform="translate(256,202)"/>
<path d="M0 0 C3.66808852 0.64457353 7.01149032 1.63910805 10.5 2.9375 C11.4178125 3.27652344 12.335625 3.61554688 13.28125 3.96484375 C15.86595043 4.94896101 18.43568508 5.96405394 21 7 C17.94736336 7.98120464 16.05263664 7.98120464 13 7 C13 6.34 13 5.68 13 5 C10.03 5 7.06 5 4 5 C3.34 3.68 2.68 2.36 2 1 C1.34 0.67 0.68 0.34 0 0 Z " fill="#AA61CA" transform="translate(88,163)"/>
<path d="M0 0 C4.21878192 -0.19622241 7.17010894 0.19769832 11 2 C11 2.66 11 3.32 11 4 C11.99 4.33 12.98 4.66 14 5 C11.33978324 6.33010838 9.90391164 5.84010022 7 5.3125 C5.6696875 5.09013672 5.6696875 5.09013672 4.3125 4.86328125 C2 4 2 4 0.6875 1.91796875 C0.460625 1.28503906 0.23375 0.65210937 0 0 Z " fill="#9F58AF" transform="translate(282,85)"/>
<path d="M0 0 C2.97 0 5.94 0 9 0 C9.33 0.99 9.66 1.98 10 3 C12.31 3.33 14.62 3.66 17 4 C17.33 4.99 17.66 5.98 18 7 C12.98993036 6.49899304 9.41017273 5.396833 5 3 C3.34089996 2.31471955 1.67667436 1.64108137 0 1 C0 0.67 0 0.34 0 0 Z " fill="#B75FB9" transform="translate(80,379)"/>
<path d="M0 0 C-1.61628121 3.23256243 -4.76993715 3.67336704 -8 5 C-8.33 5.33 -8.66 5.66 -9 6 C-10.51928038 6.07179964 -12.04167482 6.08392007 -13.5625 6.0625 C-14.38878906 6.05347656 -15.21507813 6.04445313 -16.06640625 6.03515625 C-16.70449219 6.02355469 -17.34257813 6.01195313 -18 6 C-14.87754953 3.91836635 -11.92965119 2.67424387 -8.4375 1.3125 C-7.28121094 0.85488281 -6.12492187 0.39726563 -4.93359375 -0.07421875 C-2 -1 -2 -1 0 0 Z " fill="#7F4E9B" transform="translate(129,111)"/>
<path d="M0 0 C3.51951921 1.90244282 5.99564162 3.49237283 8 7 C9.06829286 10.58641174 9.30764774 12.2875526 7.8125 15.75 C5.97795525 18.02736589 4.70408823 18.97431136 2 20 C2.639375 19.13375 3.27875 18.2675 3.9375 17.375 C5.97548296 14.0401188 6.63433093 11.83952522 7 8 C6.34 8 5.68 8 5 8 C4.731875 7.38125 4.46375 6.7625 4.1875 6.125 C3.04443152 3.7004767 3.04443152 3.7004767 0 2 C0 1.34 0 0.68 0 0 Z " fill="#833E81" transform="translate(395,129)"/>
<path d="M0 0 C6.90740163 2.20848896 13.55134589 4.64669986 20 8 C19.67 8.66 19.34 9.32 19 10 C17.72740489 9.54658132 16.45698757 9.08704773 15.1875 8.625 C14.47980469 8.36976562 13.77210938 8.11453125 13.04296875 7.8515625 C11 7 11 7 8 5 C5.67612053 4.60612212 3.34206251 4.26513915 1 4 C0.67 2.68 0.34 1.36 0 0 Z " fill="#C165C2" transform="translate(336,106)"/>
<path d="M0 0 C1.41926939 -0.01061136 2.83883508 0.00056941 4.2578125 0.03125 C4.96550781 0.01578125 5.67320313 0.0003125 6.40234375 -0.015625 C11.35044754 0.02123238 13.88074652 1.0703848 17.3828125 4.53125 C11.5078125 3.65625 11.5078125 3.65625 10.3828125 2.53125 C8.36686668 2.29697222 6.3443385 2.11788876 4.3203125 1.96875 C3.21558594 1.88496094 2.11085938 1.80117187 0.97265625 1.71484375 C0.11800781 1.65425781 -0.73664063 1.59367188 -1.6171875 1.53125 C-2.2771875 2.85125 -2.9371875 4.17125 -3.6171875 5.53125 C-4.6071875 5.20125 -5.5971875 4.87125 -6.6171875 4.53125 C-4.8282887 1.036657 -3.9704325 0.58313047 0 0 Z " fill="#AA62CB" transform="translate(69.6171875,158.46875)"/>
<path d="M0 0 C0.66 0 1.32 0 2 0 C1.34 1.65 0.68 3.3 0 5 C-0.66 5 -1.32 5 -2 5 C-2 5.66 -2 6.32 -2 7 C-5.66430125 9.32011034 -8.85435257 9.26783151 -13.125 9.25 C-14.36507812 9.25515625 -15.60515625 9.2603125 -16.8828125 9.265625 C-20 9 -20 9 -22 7 C-20.97519531 7.04640625 -19.95039063 7.0928125 -18.89453125 7.140625 C-17.53388344 7.17816011 -16.17320395 7.21455841 -14.8125 7.25 C-14.13896484 7.28351563 -13.46542969 7.31703125 -12.77148438 7.3515625 C-9.16942746 7.42184654 -7.19851055 7.12674344 -4.13671875 5.171875 C-1.86023385 2.99413526 -1.86023385 2.99413526 0 0 Z " fill="#643762" transform="translate(237,427)"/>
<path d="M0 0 C0.69996094 0.30035156 1.39992187 0.60070312 2.12109375 0.91015625 C6.04971112 2.39738047 10.06430107 3.2172165 14.16015625 4.12109375 C17.01838694 5.00569059 18.74988905 6.06285412 21 8 C15.94387258 8.29169966 13.94167167 7.9861149 10 5 C8.6314606 4.8025354 7.25416027 4.66154203 5.875 4.5625 C4.59625 4.376875 3.3175 4.19125 2 4 C0.5 1.9375 0.5 1.9375 0 0 Z " fill="#C167CC" transform="translate(191,204)"/>
<path d="M0 0 C6.23837011 -0.43023242 8.88916269 0.11131943 14 4 C15.98507948 5.02930047 17.98114251 6.03863929 20 7 C18 8 18 8 16.12060547 7.47094727 C15.00516357 7.02319946 15.00516357 7.02319946 13.8671875 6.56640625 C13.06152344 6.24736328 12.25585938 5.92832031 11.42578125 5.59960938 C10.58402344 5.25736328 9.74226563 4.91511719 8.875 4.5625 C7.60076172 4.05493164 7.60076172 4.05493164 6.30078125 3.53710938 C4.19767629 2.69823043 2.09769845 1.85228875 0 1 C0 0.67 0 0.34 0 0 Z " fill="#764490" transform="translate(111,157)"/>
<path d="M0 0 C2.64 0 5.28 0 8 0 C8 0.33 8 0.66 8 1 C6.02 1 4.04 1 2 1 C1.93941406 1.62390625 1.87882812 2.2478125 1.81640625 2.890625 C1 5 1 5 -1.28515625 6.046875 C-2.20167969 6.27890625 -3.11820312 6.5109375 -4.0625 6.75 C-5.44115234 7.11351562 -5.44115234 7.11351562 -6.84765625 7.484375 C-7.55792969 7.65453125 -8.26820313 7.8246875 -9 8 C-9 7.01 -9 6.02 -9 5 C-8.43410156 4.89042969 -7.86820312 4.78085938 -7.28515625 4.66796875 C-6.18494141 4.43013672 -6.18494141 4.43013672 -5.0625 4.1875 C-4.33160156 4.03667969 -3.60070312 3.88585937 -2.84765625 3.73046875 C-2.23792969 3.48941406 -1.62820313 3.24835938 -1 3 C-0.67 2.01 -0.34 1.02 0 0 Z " fill="#BF60BB" transform="translate(313,177)"/>
<path d="M0 0 C-0.33 1.32 -0.66 2.64 -1 4 C-4.96 4.99 -8.92 5.98 -13 7 C-11.78081617 3.3424485 -10.15928702 2.57671131 -6.85546875 0.78515625 C-4.48526307 -0.217815 -2.54101354 -0.30800164 0 0 Z " fill="#CB69BF" transform="translate(389,149)"/>
<path d="M0 0 C6.61242722 1.82221376 12.80520671 4.05223604 19 7 C19 7.33 19 7.66 19 8 C14.05423812 8.28533242 11.76607569 8.17762636 8 5 C6.7836833 4.44982571 5.55301767 3.93068755 4.3125 3.4375 C1 2 1 2 0 0 Z " fill="#7D4380" transform="translate(376,121)"/>
<path d="M0 0 C1.77395508 0.42466497 3.54410631 0.8652409 5.3125 1.3125 C6.29863281 1.55613281 7.28476563 1.79976562 8.30078125 2.05078125 C11.06774941 3.02382504 12.05026759 3.91423975 14 6 C17.10839021 6.7269226 17.10839021 6.7269226 20 7 C20 7.33 20 7.66 20 8 C16.6875 8.1875 16.6875 8.1875 13 8 C12.5359375 7.525625 12.071875 7.05125 11.59375 6.5625 C9.46420575 4.47471152 7.72346786 4.30396211 4.8125 3.8125 C3.46091797 3.57466797 3.46091797 3.57466797 2.08203125 3.33203125 C1.39496094 3.22246094 0.70789063 3.11289063 0 3 C0 2.01 0 1.02 0 0 Z " fill="#B061C9" transform="translate(132,180)"/>
<path d="M0 0 C7.9648168 0.26114153 13.25046116 2.87458093 20 7 C16.15555926 8.28148025 15.25070263 7.43706699 11.6875 5.6875 C7.84002531 3.85050943 4.09736562 2.21813572 0 1 C0 0.67 0 0.34 0 0 Z " fill="#663E81" transform="translate(91,149)"/>
<path d="M0 0 C-0.71027344 0.34933594 -1.42054688 0.69867188 -2.15234375 1.05859375 C-3.07144531 1.51363281 -3.99054688 1.96867187 -4.9375 2.4375 C-5.85402344 2.88996094 -6.77054688 3.34242187 -7.71484375 3.80859375 C-9.90528904 4.80525394 -9.90528904 4.80525394 -11 6 C-13.67058851 6.14115161 -16.32432238 6.04247107 -19 6 C-15.78117751 3.85411834 -12.54876914 2.60197657 -8.9375 1.3125 C-8.30005859 1.07466797 -7.66261719 0.83683594 -7.00585938 0.59179688 C-2.24081277 -1.12040638 -2.24081277 -1.12040638 0 0 Z " fill="#6A4282" transform="translate(151,103)"/>
<path d="M0 0 C3.65791137 3.36132396 6.21125115 6.329378 8 11 C7.5703125 13.18359375 7.5703125 13.18359375 7 15 C6.66226563 14.37351563 6.32453125 13.74703125 5.9765625 13.1015625 C5.53054687 12.28429687 5.08453125 11.46703125 4.625 10.625 C4.18414062 9.81289062 3.74328125 9.00078125 3.2890625 8.1640625 C2.0556107 5.89185698 2.0556107 5.89185698 0 4 C0 2.68 0 1.36 0 0 Z " fill="#804986" transform="translate(231,224)"/>
<path d="M0 0 C1.32 0.33 2.64 0.66 4 1 C3.59007813 1.47050781 3.18015625 1.94101563 2.7578125 2.42578125 C1.94957031 3.35970703 1.94957031 3.35970703 1.125 4.3125 C0.59132813 4.92738281 0.05765625 5.54226562 -0.4921875 6.17578125 C-2.1640447 8.13498212 -2.1640447 8.13498212 -4 11 C-4.36630156 7.06225823 -4.30233203 5.43460229 -2 2.125 C-1.34 1.42375 -0.68 0.7225 0 0 Z " fill="#8957A7" transform="translate(61,161)"/>
<path d="M0 0 C1.32 0 2.64 0 4 0 C4.33 0.66 4.66 1.32 5 2 C6.134375 2.144375 7.26875 2.28875 8.4375 2.4375 C9.613125 2.623125 10.78875 2.80875 12 3 C12.99 4.485 12.99 4.485 14 6 C14.99 6.66 15.98 7.32 17 8 C10.78443569 7.1979917 4.23131567 4.71643466 0 0 Z " fill="#A959A9" transform="translate(105,388)"/>
<path d="M0 0 C4.3177458 0.50797009 8.03302114 1.19682779 12 3 C12 3.33 12 3.66 12 4 C8.7 4 5.4 4 2 4 C1.34 2.68 0.68 1.36 0 0 Z " fill="#884D92" transform="translate(314,97)"/>
<path d="M0 0 C0.66 0.33 1.32 0.66 2 1 C0.29171079 3.10633718 -0.52148416 3.93801608 -3.26171875 4.29296875 C-4.06222656 4.25816406 -4.86273438 4.22335938 -5.6875 4.1875 C-6.49574219 4.16042969 -7.30398437 4.13335937 -8.13671875 4.10546875 C-8.75160156 4.07066406 -9.36648437 4.03585938 -10 4 C-10 4.99 -10 5.98 -10 7 C-11.32 7 -12.64 7 -14 7 C-13.3125 5.0390625 -13.3125 5.0390625 -12 3 C-9.6875 2.4609375 -9.6875 2.4609375 -7 2.375 C-3.02249049 2.37833616 -3.02249049 2.37833616 0 0 Z " fill="#A863C7" transform="translate(142,106)"/>
<path d="M0 0 C9.88235294 1.15294118 9.88235294 1.15294118 12 2 C12.33 2.99 12.66 3.98 13 5 C8.39146203 4.27991594 4.32762591 2.68704061 0 1 C0 0.67 0 0.34 0 0 Z " fill="#B45BA8" transform="translate(184,420)"/>
<path d="M0 0 C5.17366315 -0.30433313 7.68990563 0.23711899 12 3 C15.19395026 3.71401232 15.19395026 3.71401232 18 4 C18 4.33 18 4.66 18 5 C11.09647445 5.51137226 6.25172386 3.86964374 0 1 C0 0.67 0 0.34 0 0 Z " fill="#7C4891" transform="translate(133,166)"/>
<path d="M0 0 C0.81404297 0.61488281 0.81404297 0.61488281 1.64453125 1.2421875 C2.35996094 1.78101563 3.07539062 2.31984375 3.8125 2.875 C4.52019531 3.40867187 5.22789063 3.94234375 5.95703125 4.4921875 C7.60456297 5.70814781 9.29624211 6.86416141 11 8 C11 8.66 11 9.32 11 10 C6.23439379 8.59835111 3.04117557 5.84588526 0 2 C0 1.34 0 0.68 0 0 Z " fill="#693B73" transform="translate(65,369)"/>
<path d="M0 0 C1.27875 -0.061875 2.5575 -0.12375 3.875 -0.1875 C4.95394531 -0.23970703 4.95394531 -0.23970703 6.0546875 -0.29296875 C6.69664063 -0.19628906 7.33859375 -0.09960938 8 0 C8.66 0.99 9.32 1.98 10 3 C13.05429073 4.21284876 13.05429073 4.21284876 16 5 C16 5.33 16 5.66 16 6 C13.36 6 10.72 6 8 6 C7.67 4.68 7.34 3.36 7 2 C4.69 1.67 2.38 1.34 0 1 C0 0.67 0 0.34 0 0 Z " fill="#A360BE" transform="translate(115,174)"/>
<path d="M0 0 C1.43931117 0.45261358 2.87638999 0.91232979 4.3125 1.375 C5.11300781 1.63023437 5.91351563 1.88546875 6.73828125 2.1484375 C9 3 9 3 12 5 C12 5.66 12 6.32 12 7 C3.64989059 4.6892779 3.64989059 4.6892779 0.9375 1.8125 C0.628125 1.214375 0.31875 0.61625 0 0 Z " fill="#773774" transform="translate(202,427)"/>
<path d="M0 0 C1.64767247 0.28109113 3.29313145 0.57518526 4.9375 0.875 C5.85402344 1.03742188 6.77054688 1.19984375 7.71484375 1.3671875 C8.46894531 1.57601562 9.22304687 1.78484375 10 2 C10.33 2.66 10.66 3.32 11 4 C13.01669827 5.13350534 13.01669827 5.13350534 15 6 C8.375 5.25 8.375 5.25 5 3 C3.34450469 2.61500109 1.6777567 2.27206865 0 2 C0 1.34 0 0.68 0 0 Z " fill="#9A53A8" transform="translate(176,197)"/>
<path d="M0 0 C0.680625 0.7425 1.36125 1.485 2.0625 2.25 C5.03073132 5.24381953 8.28714872 7.03437285 12 9 C11.01 9.33 10.02 9.66 9 10 C5.6842709 8.06582469 2.38849761 6.05196917 0 3 C0 2.01 0 1.02 0 0 Z " fill="#603A76" transform="translate(79,139)"/>
<path d="M0 0 C0 2.83967231 -0.40267181 5.23735711 -1 8 C-0.34 8.33 0.32 8.66 1 9 C1 10.65 1 12.3 1 14 C-1 12.4375 -1 12.4375 -3 10 C-3.74195584 3.95835962 -3.74195584 3.95835962 -1.5 1.0625 C-1.005 0.711875 -0.51 0.36125 0 0 Z " fill="#A160C3" transform="translate(83,130)"/>
<path d="M0 0 C0 0.99 0 1.98 0 3 C-1.24891614 3.48198463 -2.49918808 3.96045677 -3.75 4.4375 C-4.79414063 4.83775391 -4.79414063 4.83775391 -5.859375 5.24609375 C-7.89059003 5.96146693 -9.9035291 6.51365652 -12 7 C-10.13792141 3.39998139 -8.01013392 2.46510297 -4.3125 1.25 C-2.87888841 0.82014517 -1.44245638 0.39917032 0 0 Z " fill="#BD6DDE" transform="translate(153,103)"/>
<path d="M0 0 C0.99 0.33 1.98 0.66 3 1 C2.01 2.485 2.01 2.485 1 4 C-2.2578125 4.29296875 -2.2578125 4.29296875 -6.125 4.1875 C-8.04699219 4.14689453 -8.04699219 4.14689453 -10.0078125 4.10546875 C-10.99523437 4.07066406 -11.98265625 4.03585937 -13 4 C-13 3.67 -13 3.34 -13 3 C-11.96939453 2.92652344 -11.96939453 2.92652344 -10.91796875 2.8515625 C-9.56638672 2.73941406 -9.56638672 2.73941406 -8.1875 2.625 C-7.29417969 2.55539062 -6.40085938 2.48578125 -5.48046875 2.4140625 C-2.75601501 2.13354964 -2.75601501 2.13354964 0 0 Z " fill="#DF6EC5" transform="translate(231,429)"/>
<path d="M0 0 C2.68433048 2.45091043 3.91789741 4.28241384 4.09765625 8.04296875 C4.06510417 10.02864583 4.03255208 12.01432292 4 14 C1.01520806 9.52281208 0 5.36175907 0 0 Z " fill="#B461B9" transform="translate(235,233)"/>
<path d="M0 0 C-1 1 -1 1 -4.4375 1.4375 C-8.04058997 1.64847551 -8.04058997 1.64847551 -10 4 C-12.125 3.625 -12.125 3.625 -14 3 C-12.33607581 1.00971125 -11.35962232 0.08974532 -8.80859375 -0.546875 C-8.02613281 -0.61390625 -7.24367187 -0.6809375 -6.4375 -0.75 C-5.65246094 -0.82734375 -4.86742187 -0.9046875 -4.05859375 -0.984375 C-2 -1 -2 -1 0 0 Z " fill="#A561BF" transform="translate(206,85)"/>
<path d="M0 0 C-0.556875 0.268125 -1.11375 0.53625 -1.6875 0.8125 C-4.08933398 2.00699665 -4.08933398 2.00699665 -6.625 3.625 C-9 5 -9 5 -11 5 C-10.625 3.0625 -10.625 3.0625 -10 1 C-6.78548731 -0.60725635 -3.56387464 -0.05748185 0 0 Z " fill="#B56AD5" transform="translate(173,97)"/>
<path d="M0 0 C-3.60051153 2.40034102 -6.96144535 4.32187705 -11.375 3.625 C-11.91125 3.41875 -12.4475 3.2125 -13 3 C-8.51925805 -0.36055646 -5.39449293 -0.27429625 0 0 Z " fill="#A95BAA" transform="translate(302,186)"/>
<path d="M0 0 C2.64 0 5.28 0 8 0 C7.67 0.66 7.34 1.32 7 2 C4.71484375 2.6328125 4.71484375 2.6328125 1.9375 3.125 C1.01839844 3.29257813 0.09929687 3.46015625 -0.84765625 3.6328125 C-1.91306641 3.81457031 -1.91306641 3.81457031 -3 4 C-2.34 3.67 -1.68 3.34 -1 3 C-0.67 2.01 -0.34 1.02 0 0 Z " fill="#C060B9" transform="translate(355,161)"/>
<path d="M0 0 C-0.99 0 -1.98 0 -3 0 C-3.33 0.99 -3.66 1.98 -4 3 C-6.64 3.33 -9.28 3.66 -12 4 C-9 2 -9 2 -7 2 C-7 1.34 -7 0.68 -7 0 C-3.86650268 -1.04449911 -3.01031744 -0.93423645 0 0 Z " fill="#934F93" transform="translate(375,158)"/>
<path d="M0 0 C2.64 0 5.28 0 8 0 C5.6870518 2.3129482 4.52095125 2.49580975 1.375 3.125 C0.55773437 3.29257813 -0.25953125 3.46015625 -1.1015625 3.6328125 C-2.04128906 3.81457031 -2.04128906 3.81457031 -3 4 C-2.67 3.34 -2.34 2.68 -2 2 C-1.34 2 -0.68 2 0 2 C0 1.34 0 0.68 0 0 Z " fill="#79447E" transform="translate(256,202)"/>
<path d="M0 0 C1.4589426 0.47730838 2.91713496 0.95691042 4.375 1.4375 C5.18710938 1.70433594 5.99921875 1.97117188 6.8359375 2.24609375 C9 3 9 3 11 4 C10.67 4.66 10.34 5.32 10 6 C5.05 4.02 5.05 4.02 0 2 C0 1.34 0 0.68 0 0 Z " fill="#764198" transform="translate(124,175)"/>
<path d="M0 0 C4.29 0.66 8.58 1.32 13 2 C13 2.99 13 3.98 13 5 C7.06 4.01 7.06 4.01 1 3 C0.67 2.01 0.34 1.02 0 0 Z " fill="#A860C4" transform="translate(130,163)"/>
<path d="M0 0 C4.08378283 0.74250597 8.01939223 1.82923301 12 3 C12 3.33 12 3.66 12 4 C9.03 4 6.06 4 3 4 C2.67 3.01 2.34 2.02 2 1 C1.34 0.67 0.68 0.34 0 0 Z " fill="#9F5CBE" transform="translate(88,163)"/>
<path d="M0 0 C2.31 0.33 4.62 0.66 7 1 C7.33 1.99 7.66 2.98 8 4 C8.99 4.33 9.98 4.66 11 5 C6.87248551 4.39301257 3.6678852 2.96189209 0 1 C0 0.67 0 0.34 0 0 Z " fill="#9D60BE" transform="translate(84,144)"/>
<path d="M0 0 C6.4 -0.49230769 6.4 -0.49230769 9.4375 2 C10.2109375 2.99 10.2109375 2.99 11 4 C7.1936543 3.32829194 3.64793184 2.27253436 0 1 C0 0.67 0 0.34 0 0 Z " fill="#C764BE" transform="translate(377,125)"/>
<path d="M0 0 C3.3 0.99 6.6 1.98 10 3 C10 3.66 10 4.32 10 5 C6.44219804 4.39009109 3.3171411 3.4216319 0 2 C0 1.34 0 0.68 0 0 Z " fill="#DC6DC8" transform="translate(178,415)"/>
<path d="M0 0 C0 0.33 0 0.66 0 1 C-1.36125 1.433125 -1.36125 1.433125 -2.75 1.875 C-5.32202908 2.76531776 -7.61346766 3.71494413 -10 5 C-9.6875 3.0625 -9.6875 3.0625 -9 1 C-5.8035914 -0.06546953 -3.34252724 -0.07427838 0 0 Z " fill="#CF67CE" transform="translate(272,196)"/>
<path d="M0 0 C2.97 0 5.94 0 9 0 C9.33 1.32 9.66 2.64 10 4 C6.7 3.01 3.4 2.02 0 1 C0 0.67 0 0.34 0 0 Z " fill="#AB5EC2" transform="translate(154,173)"/>
<path d="M0 0 C0.66 0 1.32 0 2 0 C0.90931332 3.77545388 0.0916909 6.47043472 -3 9 C-3.66 8.67 -4.32 8.34 -5 8 C-4.360625 7.236875 -3.72125 6.47375 -3.0625 5.6875 C-0.85767219 3.11753287 -0.85767219 3.11753287 0 0 Z " fill="#6F3E6F" transform="translate(402,140)"/>
<path d="M0 0 C0.99 0 1.98 0 3 0 C2.5 1.9375 2.5 1.9375 1 4 C-1.69658452 4.68790422 -4.2017019 4.81946464 -7 5 C-4 3 -4 3 -1 2 C-0.67 1.34 -0.34 0.68 0 0 Z " fill="#925AAE" transform="translate(151,101)"/>
<path d="M0 0 C-3.6441774 2.4294516 -5.71241272 2.16179575 -10 2 C-6.80505194 -1.19494806 -4.22040044 -1.35655728 0 0 Z " fill="#7E4D9A" transform="translate(185,91)"/>
<path d="M0 0 C2.97 0.99 5.94 1.98 9 3 C9 3.33 9 3.66 9 4 C6.36 4 3.72 4 1 4 C0.67 2.68 0.34 1.36 0 0 Z " fill="#6B3978" transform="translate(277,81)"/>
<path d="M0 0 C3.3 0.99 6.6 1.98 10 3 C10 3.33 10 3.66 10 4 C3.375 4.25 3.375 4.25 0 2 C0 1.34 0 0.68 0 0 Z " fill="#905092" transform="translate(136,401)"/>
<path d="M0 0 C1.32 0.33 2.64 0.66 4 1 C3.01 2.485 3.01 2.485 2 4 C0.68 4 -0.64 4 -2 4 C-1.34 2.68 -0.68 1.36 0 0 Z " fill="#7F4684" transform="translate(276,194)"/>
<path d="M0 0 C2.97 0 5.94 0 9 0 C6.07735566 1.46132217 4.07536854 2.34099246 1 3 C0.67 2.01 0.34 1.02 0 0 Z " fill="#CA76EA" transform="translate(154,102)"/>
<path d="M0 0 C0.66 0.33 1.32 0.66 2 1 C1.01 2.485 1.01 2.485 0 4 C-2.1640625 4.29296875 -2.1640625 4.29296875 -4.625 4.1875 C-5.44226563 4.16042969 -6.25953125 4.13335937 -7.1015625 4.10546875 C-8.04128906 4.05326172 -8.04128906 4.05326172 -9 4 C-9 3.67 -9 3.34 -9 3 C-8.43410156 2.86722656 -7.86820313 2.73445313 -7.28515625 2.59765625 C-6.18494141 2.33275391 -6.18494141 2.33275391 -5.0625 2.0625 C-4.33160156 1.88847656 -3.60070312 1.71445313 -2.84765625 1.53515625 C-1.00030102 1.16112431 -1.00030102 1.16112431 0 0 Z " fill="#B86BD4" transform="translate(185,90)"/>
</svg>
